<svg height="512pt" viewBox="0 0 512.0004 512" width="512pt" xmlns="http://www.w3.org/2000/svg"><path d="m324.265625 255.914062v13.824219c-.007813 35 26.453125 64.339844 61.269531 67.925781l56.664063 5.886719c34.8125 3.589844 61.277343 32.925781 61.269531 67.925781v66.390626c0 14.136718-11.464844 25.601562-25.601562 25.601562h-443.734376c-14.136718 0-25.597656-11.464844-25.597656-25.601562v-66.390626c-.011718-35 26.453125-64.335937 61.269532-67.925781l56.660156-5.886719c34.816406-3.585937 61.277344-32.925781 61.269531-67.925781v-13.824219zm0 0" fill="#a4c2f7"/><path d="m503.46875 411.476562v66.390626c0 14.136718-11.464844 25.601562-25.601562 25.601562h-443.734376c-14.136718 0-25.597656-11.464844-25.597656-25.601562v-66.390626c-.011718-35 26.453125-64.335937 61.269532-67.925781l56.660156-5.886719c1.792968-.171874 3.582031-.425781 5.375-.769531 6.550781-1.148437 12.882812-3.304687 18.773437-6.398437l40.363281 37.886718 52.992188 30.125 12.03125 6.824219 73.558594-36.949219 29.609375-30.804687 5.375-5.632813c6.636719 3.046876 13.730469 4.976563 20.992187 5.71875l56.664063 5.886719c34.8125 3.589844 61.277343 32.925781 61.269531 67.925781zm0 0" fill="#7facfa"/><path d="m477.867188 411.476562v66.390626c0 14.136718-11.460938 25.601562-25.601563 25.601562h-418.132813c-14.136718 0-25.597656-11.464844-25.597656-25.601562v-66.390626c-.011718-35 26.453125-64.335937 61.269532-67.925781l56.660156-5.886719c1.792968-.171874 3.582031-.425781 5.375-.769531l33.535156 31.488281 65.023438 36.949219 13.570312-6.824219 59.988281-30.125 34.988281-36.4375c6.398438 2.9375 13.226563 4.839844 20.222657 5.632813.257812 0 .511719.085937.769531.085937l56.660156 5.886719c34.816406 3.589844 61.277344 32.925781 61.269532 67.925781zm0 0" fill="#a4c2f7"/><path d="m230.398438 358.398438 25.601562 46.933593 25.601562-46.933593 25.597657 59.734374v85.335938h-102.398438v-85.335938zm0 0" fill="#d4e1f4"/><path d="m238.933594 384h34.132812c9.425782 0 17.066406 7.640625 17.066406 17.066406v17.066406c0 9.425782-7.640624 17.066407-17.066406 17.066407h-34.132812c-9.425782 0-17.066406-7.640625-17.066406-17.066407v-17.066406c0-9.425781 7.640624-17.066406 17.066406-17.066406zm0 0" fill="#e3e7f2"/><path d="m298.667969 503.46875-25.601563-68.269531h-34.132812l-25.601563 68.269531zm0 0" fill="#d4e1f4"/><path d="m384.339844 145.066406c0 19.710938-11.519532 46.847656-26.28125 50.6875-4.195313 43.8125-40.980469 77.273438-84.992188 77.3125h-34.132812c-44.011719-.039062-80.796875-33.5-84.992188-77.3125-14.761718-3.839844-26.28125-30.976562-26.28125-50.6875 0-19.539062 11.347656-24.746094 25.941406-25.429687v-42.835938c0-37.703125 30.5625-68.265625 68.265626-68.265625h68.265624c37.703126 0 68.265626 30.5625 68.265626 68.265625v42.835938c14.59375.683593 25.941406 5.890625 25.941406 25.429687zm0 0" fill="#a4c2f7"/><path d="m359.082031 145.066406c0 19.710938-11.519531 46.847656-26.28125 50.6875-4.199219 43.8125-40.980469 77.273438-84.992187 77.3125h-8.875c-44.011719-.039062-80.796875-33.5-84.992188-77.3125-14.761718-3.839844-26.28125-30.976562-26.28125-50.6875 0-19.539062 11.347656-24.746094 25.941406-25.429687v-42.835938c0-37.703125 30.5625-68.265625 68.265626-68.265625h43.007812c37.703125 0 68.265625 30.5625 68.265625 68.265625v42.835938c14.59375.683593 25.941406 5.890625 25.941406 25.429687zm0 0" fill="#d4e1f4"/><path d="m358.398438 76.800781v42.835938l-.253907.085937c-1.792969-5.289062-6.65625-8.960937-16.8125-8.789062-2.859375.082031-5.71875-.148438-8.53125-.683594-39.59375-6.570312-51.199219-63.914062-51.199219-63.914062-6.125 6.890624-12.589843 13.46875-19.371093 19.710937-20.394531 19.03125-53.589844 44.886719-83.03125 44.886719-9.402344-1.066406-18.792969 2.125-25.597657 8.703125v-42.835938c0-37.703125 30.5625-68.265625 68.265626-68.265625h68.265624c37.703126 0 68.265626 30.5625 68.265626 68.265625zm0 0" fill="#7facfa"/><path d="m332.800781 76.800781v33.449219c-39.59375-6.570312-51.199219-63.914062-51.199219-63.914062-6.125 6.890624-12.589843 13.46875-19.371093 19.710937-4.4375-11.007813-14.761719 10.753906-14.761719 10.753906s-47.363281 34.132813-93.867188 34.132813v-34.132813c0-37.703125 30.5625-68.265625 68.265626-68.265625h42.667968c37.699219 0 68.265625 30.5625 68.265625 68.265625zm0 0" fill="#a4c2f7"/><path d="m393.984375 338.515625-86.785156 79.617187-25.597657-59.734374 63.488282-39.679688c10.921875 10.753906 25.195312 17.4375 40.445312 18.945312zm0 0" fill="#d4e1f4"/><path d="m230.398438 358.398438-25.597657 59.734374-86.785156-79.617187 8.449219-.851563c15.25-1.507812 29.523437-8.191406 40.449218-18.945312zm0 0" fill="#d4e1f4"/><path d="m34.132812 503.46875h25.601563c-14.140625 0-25.601563-11.464844-25.601563-25.601562v-66.390626c-.007812-35 26.453126-64.335937 61.269532-67.925781l48.238281-5.007812 8.449219-.851563c1.953125-.207031 3.875-.511718 5.777344-.855468 2.746093-.527344 5.457031-1.226563 8.113281-2.089844h.105469c.851562-.265625 1.636718-.5625 2.457031-.855469 2.53125-.894531 5-1.957031 7.390625-3.179687.492187-.25.980468-.503907 1.464844-.769532 1.140624-.601562 2.242187-1.238281 3.3125-1.902344.691406-.425781 1.382812-.855468 2.054687-1.316406.855469-.5625 1.707031-1.148437 2.484375-1.703125.777344-.554687 1.835938-1.359375 2.714844-2.074219.359375-.292968.707031-.605468 1.066406-.90625 1.203125-1.023437 2.386719-2.082031 3.507812-3.191406 13.316407-12.863281 20.824219-30.59375 20.792969-49.109375v-13.789062c-19.234375-14.414063-31.5-36.269531-33.789062-60.195313-14.765625-3.839844-26.285157-30.976562-26.285157-50.6875 0-19.539062 11.351563-24.746094 25.941407-25.429687v-42.835938c0-37.703125 30.566406-68.265625 68.269531-68.265625h-25.601562c-37.703126 0-68.265626 30.5625-68.265626 68.265625v42.835938c-14.59375.683593-25.941406 5.890625-25.941406 25.429687 0 19.710938 11.519532 46.847656 26.28125 50.6875 2.289063 23.925782 14.558594 45.78125 33.792969 60.195313v13.789062c-.003906 18.476563-7.507813 36.160157-20.796875 49-1.117188 1.109375-2.304688 2.167969-3.507812 3.191407-.359376.296874-.707032.613281-1.066407.902343-.851562.71875-1.792969 1.402344-2.714843 2.074219-.917969.675781-1.636719 1.1875-2.480469 1.707031-.675781.453125-1.367188.855469-2.058594 1.3125-1.085937.667969-2.1875 1.300781-3.308594 1.90625-.488281.261719-.972656.519531-1.46875.765625-2.390625 1.226563-4.859375 2.289063-7.390625 3.183594-.851562.300781-1.628906.597656-2.457031.855469h-.101563c-2.660156.863281-5.371093 1.558593-8.117187 2.089843-1.902344.355469-3.820313.664063-5.777344.851563l-8.445312.855469-48.238281 5.117187c-34.816407 3.589844-61.28125 32.925781-61.269532 67.925781v66.390626c0 6.789062 2.695313 13.300781 7.496094 18.101562s11.3125 7.5 18.101562 7.5zm0 0" fill="#fff"/><path d="m221.867188 17.066406c-32.988282 0-59.734376 26.742188-59.734376 59.734375h-17.066406c0-42.417969 34.386719-76.800781 76.800782-76.800781zm0 0" fill="#fff"/><g fill="#428dff"><path d="m161.699219 38.230469c.652343.90625 1.472656 1.679687 2.414062 2.277343 1.847657 1.132813 4.007813 1.652344 6.167969 1.492188 1.902344-.085938 3.683594-.964844 4.910156-2.421875 1.105469-1.515625 1.582032-3.40625 1.320313-5.265625l-.359375-1.511719c-.15625-.542969-.378906-1.0625-.664063-1.550781-.199219-.503906-.46875-.976562-.792969-1.410156-.34375-.457032-.710937-.898438-1.101562-1.320313-1.566406-1.582031-3.695312-2.476562-5.921875-2.492187-1.113281.058594-2.203125.351562-3.199219.851562-3.082031 1.558594-4.804687 4.929688-4.269531 8.339844.289063 1.09375.796875 2.121094 1.496094 3.011719zm0 0"/><path d="m34.132812 512h443.734376c18.851562 0 34.132812-15.28125 34.132812-34.132812v-66.390626c.09375-39.40625-29.71875-72.457031-68.921875-76.414062l-48.640625-5.050781h-.136719l-7.894531-.855469c-30.488281-3.070312-53.675781-28.773438-53.605469-59.417969v-9.523437c17.882813-14.722656 29.652344-35.570313 33.023438-58.488282 17.460937-9.28125 27.050781-37.964843 27.050781-56.660156 1.582031-16.164062-9.859375-30.703125-25.941406-32.972656v-35.292969c-.050782-42.394531-34.40625-76.7499998-76.800782-76.800781h-68.265624c-11.527344.0429688-22.898438 2.667969-33.28125 7.679688-2.035157.988281-3.535157 2.816406-4.113282 5.003906-.574218 2.1875-.167968 4.519531 1.117188 6.378906 2.066406 3.652344 6.429687 5.324219 10.402344 3.984375 8.074218-3.890625 16.914062-5.933594 25.875-5.980469h68.265624c32.976563.039063 59.695313 26.757813 59.734376 59.734375v26.453125c-2.578126-.566406-5.210938-.855468-7.851563-.855468-.511719 0-1.023437 0-1.527344 0-38.273437 0-50.40625-57.171876-50.527343-57.777344-.109376-.320313-.242188-.636719-.398438-.9375-.171875-.570313-.402344-1.121094-.691406-1.640625-.292969-.46875-.632813-.90625-1.015625-1.304688-.207031-.300781-.429688-.582031-.675781-.851562-.152344-.128907-.339844-.164063-.503907-.285157-.445312-.3125-.921875-.582031-1.421875-.800781-.492187-.265625-1.003906-.480469-1.539062-.640625-.488282-.101562-.988282-.160156-1.492188-.179687-.59375-.0625-1.195312-.0625-1.792968 0-.179688 0-.347657 0-.527344 0-.320313.117187-.632813.25-.9375.402343-.570313.167969-1.113282.394532-1.632813.683594-.484375.300782-.9375.652344-1.347656 1.050782-.296875.191406-.582031.40625-.851563.636718-.519531.605469-53.855468 61.644532-95.933593 61.644532-5.769531-.085938-11.519531.675781-17.066407 2.261718v-27.859375c.066407-4.472656.582032-8.925781 1.535157-13.296875.425781-4.164062-2.171875-8.039062-6.183594-9.230468-2.105469-.847657-4.476563-.730469-6.488281.320312-2.007813 1.050781-3.457032 2.929688-3.964844 5.140625-1.242188 5.605469-1.898438 11.324219-1.964844 17.066406v35.292969c-16.082031 2.269531-27.523437 16.808594-25.941406 32.972656 0 18.695313 9.59375 47.378906 27.050781 56.660156 3.371094 22.917969 15.140625 43.765626 33.023438 58.488282v9.523437c.078125 30.65625-23.117188 56.371094-53.621094 59.433594l-7.886719.855469h-.128906l-48.636719 5.050781c-39.203125 3.957031-69.0117185 37-68.925781 76.398437v66.390626c0 18.851562 15.28125 34.132812 34.132812 34.132812zm133.742188-182.613281 51.796875 32.375-17.96875 41.949219-64.605469-59.269532c11.265625-2.625 21.792969-7.769531 30.777344-15.054687zm62.523438 71.679687c0-4.710937 3.820312-8.53125 8.535156-8.53125h34.132812c4.714844 0 8.535156 3.820313 8.535156 8.53125v17.066406c0 4.714844-3.820312 8.535157-8.535156 8.535157h-34.132812c-4.714844 0-8.535156-3.820313-8.535156-8.535157zm113.726562-71.679687c8.984375 7.285156 19.511719 12.429687 30.777344 15.054687l-64.605469 59.269532-17.96875-41.949219zm-99.277344 114.347656h22.304688l19.199218 51.199219h-60.703124zm250.085938-32.257813v66.390626c0 9.425781-7.640625 17.066406-17.066406 17.066406h-173.285157l-20.226562-53.9375c8.242187-4.078125 13.652343-12.269532 14.167969-21.445313l.851562 1.945313c1.089844 2.542968 3.34375 4.398437 6.050781 4.980468 2.703125.582032 5.519531-.183593 7.558594-2.054687l83.933594-76.996094 44.375 4.609375c30.507812 3.066406 53.710937 28.78125 53.640625 59.441406zm-332.492188-216.523437c0-.078125-.058594-.136719-.070312-.214844-.285156-1.078125-.628906-2.140625-1.03125-3.183593-.238282-.34375-.503906-.667969-.792969-.972657-.375-.554687-.820313-1.0625-1.324219-1.507812-.300781-.1875-.613281-.355469-.9375-.503907-.625-.421874-1.304687-.753906-2.023437-.992187-.058594 0-.109375-.066406-.167969-.082031-9.492188-2.46875-19.902344-24.671875-19.902344-42.429688-.585937-4.765625 1-9.542968 4.320313-13.011718-.144531 8.738281 1.714843 17.398437 5.433593 25.308593 2.070313 4.242188 7.1875 6 11.429688 3.929688 4.242188-2.070313 6.003906-7.1875 3.929688-11.429688-1.894532-3.925781-6.332032-16.699219-1.980469-23.636719 3.476562-5.589843 12.734375-6.757812 19.875-6.757812 37.769531 0 79.359375-37.128906 98.363281-56.320312 7.382812 21.167968 25.515625 56.957031 63.925781 56.359374 2.558594-.082031 7.046875.191407 8.300781 2.332032 2.5625 4.472656-1.707031 18.0625-7.269531 27.46875-2.335937 4.050781-.976562 9.230468 3.050781 11.609375 4.03125 2.378906 9.222657 1.070312 11.644532-2.929688 5.171875-8.644531 8.621094-18.207031 10.152344-28.160156 6.09375 2.183594 8.441406 6.757813 8.441406 15.296875 0 17.757812-10.410156 39.964844-19.898438 42.429688-.054687 0-.09375.058593-.15625.078124-.84375.253907-1.640625.640626-2.363281 1.148438-.199219.097656-.390625.203125-.578125.316406-.609375.519532-1.144531 1.125-1.582031 1.792969-.199219.222656-.386719.457031-.5625.699219-.234375.511718-.425781 1.042968-.5625 1.589844-.214844.519531-.375 1.0625-.476563 1.621093 0 .074219-.0625.136719-.070312.210938-1.941406 21.359375-12.761719 40.917969-29.824219 53.914062-.558594.308594-1.082031.683594-1.558594 1.109375-13.132812 9.46875-28.921875 14.546875-45.109375 14.5h-34.132812c-16.195313.027344-31.984375-5.066406-45.105469-14.558594-.480469-.429687-1.003906-.800781-1.5625-1.109374-17.0625-12.996094-27.882813-32.554688-29.824219-53.914063zm76.492188 86.648437h34.132812c14.851563.027344 29.5-3.460937 42.742188-10.179687.316406 16.5 5.957031 32.453125 16.078125 45.488281l-54.808594 34.253906c-.238281.152344-.367187.425782-.597656.605469-.648438.484375-1.226563 1.058594-1.707031 1.707031-.152344.203126-.402344.324219-.527344.539063l-12.835938 21.453125h-10.820312l-12.875-21.464844c-.128906-.210937-.378906-.332031-.53125-.535156-.480469-.648438-1.054688-1.226562-1.707032-1.707031-.230468-.179688-.359374-.453125-.597656-.605469l-54.808594-34.253906c10.121094-13.035156 15.761719-28.992188 16.078126-45.492188 13.253906 6.730469 27.917968 10.222656 42.785156 10.191406zm-221.867188 129.875c-.070312-30.65625 23.121094-56.367187 53.625-59.441406l44.371094-4.609375 83.933594 76.996094c2.039062 1.871094 4.859375 2.636719 7.5625 2.054687 2.703125-.582031 4.960937-2.4375 6.050781-4.980468l.851563-1.945313c.515624 9.175781 5.925781 17.367188 14.164062 21.445313l-20.207031 53.9375h-173.285157c-9.425781 0-17.066406-7.640625-17.066406-17.066406zm0 0"/></g></svg>