<svg height="512" viewBox="0 0 60 60" width="512" xmlns="http://www.w3.org/2000/svg"><g id="011---Plane-Ticket" fill="none"><g id="Icons" transform="translate(1 1)"><path id="Shape" d="m58 24.69c.0014385 1.046573-.3083558 2.0699385-.89 2.94h-.01c-.9826802 1.4812178-2.6424553 2.3711877-4.42 2.37h-16.06l-1.91 4-1.9 4-3.27 6.86c-.3279457.6970969-1.0296168 1.1414886-1.8 1.14h-2.74c-1.1032019-.0032948-1.9967052-.8967981-2-2v-14h-19c-2.209139 0-4-1.790861-4-4v-24c0-.55228475.44771525-1 1-1h3.16c.48722549.0010439.90396309.35042997.99.83l2.85 16.17h41.4c2.6411226.0008171 5.1736492 1.05124 7.04 2.92 1.0009284.9990276 1.5623592 2.3558189 1.56 3.77z" fill="#e8edfc"/><path id="Shape" d="m56.44 20.92c-1.8663508-1.86876-4.3988774-2.9191829-7.04-2.92h-3c2.6411226.0008171 5.1736492 1.05124 7.04 2.92 1.7930061 1.7915977 2.0733522 4.5992428.67 6.71h-.01c-.9826802 1.4812178-2.6424553 2.3711877-4.42 2.37h3c1.7775447.0011877 3.4373198-.8887822 4.42-2.37h.01c1.4033522-2.1107572 1.1230061-4.9184023-.67-6.71z" fill="#cad9fc"/><path id="Shape" d="m37.57 18h-14.57v-16c.0032948-1.10320187.8967981-1.9967052 2-2h2.74c.7703832-.00148864 1.4720543.44290312 1.8 1.14z" fill="#cad9fc"/><g fill="#e8edfc"><path id="Shape" d="m40 38v20h-38c-1.10320187-.0032948-1.9967052-.8967981-2-2v-18h23v6c.0032948 1.1032019.8967981 1.9967052 2 2h2.74c.7703832.0014886 1.4720543-.4429031 1.8-1.14l3.27-6.86z"/><path id="Shape" d="m54 46c-.0016782 1.8892475 1.3212372 3.5209822 3.17 3.91.4778647.088968.8257724.5039423.83.99v5.1c-.0032948 1.1032019-.8967981 1.9967052-2 2h-16v-20h18v3.1c-.0042276.4860577-.3521353.901032-.83.99-1.8487628.3890178-3.1716782 2.0207525-3.17 3.91z"/><path id="Shape" d="m23 34v4h-23v-2c.0032948-1.1032019.89679813-1.9967052 2-2z"/><path id="Shape" d="m58 36v2h-25.19l1.9-4h21.29c1.1032019.0032948 1.9967052.8967981 2 2z"/></g><path id="Shape" d="m56 34h-3c1.1032019.0032948 1.9967052.8967981 2 2v2h3v-2c-.0032948-1.1032019-.8967981-1.9967052-2-2z" fill="#cad9fc"/><path id="Shape" d="m54 46c-.0016782 1.8892475 1.3212372 3.5209822 3.17 3.91.4778647.088968.8257724.5039423.83.99v5.1c-.0032948 1.1032019-.8967981 1.9967052-2 2h-16v-20h18v3.1c-.0042276.4860577-.3521353.901032-.83.99-1.8487628.3890178-3.1716782 2.0207525-3.17 3.91z" fill="#cad9fc"/><path id="Shape" d="m51 46c-.0016782 1.8892475 1.3212372 3.5209822 3.17 3.91.4778647.088968.8257724.5039423.83.99v5.1c-.0032948 1.1032019-.8967981 1.9967052-2 2h-13v-20h15v3.1c-.0042276.4860577-.3521353.901032-.83.99-1.8487628.3890178-3.1716782 2.0207525-3.17 3.91z" fill="#e8edfc"/></g><g id="Layer_2" fill="#fff" transform="translate(0 2)"><path id="Rectangle-path" d="m0 1h2v8h-2z"/><path id="Shape" d="m3 57h3c-1.10320187-.0032948-1.9967052-.8967981-2-2v-20c.0032948-1.1032019.89679813-1.9967052 2-2h-3c-1.10320187.0032948-1.9967052.8967981-2 2v20c.0032948 1.1032019.89679813 1.9967052 2 2z"/><path id="Shape" d="m5 29h3c-2.209139 0-4-1.790861-4-4v-24c0-.55228475.44771525-1 1-1h-3c-.55228475 0-1 .44771525-1 1v24c0 2.209139 1.790861 4 4 4z"/></g><g id="Layer_3" fill="#428dff"><path id="Shape" d="m1.02 8c-.55228475.00276142-1.00223858-.44271525-1.005-.995s.44271525-1.00223858.995-1.005h.01c.55228475 0 1 .44771525 1 1s-.44771525 1-1 1z"/><path id="Shape" d="m41 42c-.5522847 0-1 .4477153-1 1v1c0 .5522847.4477153 1 1 1s1-.4477153 1-1v-1c0-.5522847-.4477153-1-1-1z"/><path id="Shape" d="m41 47c-.5522847 0-1 .4477153-1 1v1c0 .5522847.4477153 1 1 1s1-.4477153 1-1v-1c0-.5522847-.4477153-1-1-1z"/><path id="Shape" d="m41 52c-.5522847 0-1 .4477153-1 1v1c0 .5522847.4477153 1 1 1s1-.4477153 1-1v-1c0-.5522847-.4477153-1-1-1z"/><path id="Shape" d="m53.68 32c2.0669063.004005 4.0036574-1.0084895 5.18-2.708.0292956-.0341191.0566712-.0698409.082-.107 1.6665635-2.5085859 1.331792-5.8445838-.8-7.972-2.0483505-2.0614546-4.8359191-3.2183208-7.742-3.213h-11.2l-7.756-16.286c-.4956814-1.04471047-1.5476636-1.71153646-2.704-1.714h-2.74c-1.6568542 0-3 1.34314575-3 3v15h-13.161l-2.706-15.354c-.17608324-.95184619-1.00500742-1.64338658-1.973-1.646h-3.16c-1.1045695 0-2 .8954305-2 2 0 .35726559.19059892.68739261.5.8660254.30940108.1786328.69059892.1786328 1 0 .30940108-.17863279.5-.50875981.5-.8660254h3.165l2.643 15h-2.808c-.55228475 0-1 .4477153-1 1s.44771525 1 1 1h45.4c2.377116-.0052198 4.6575356.9407241 6.333 2.627.1090945.1183398.2112646.2428804.306.373h-5.039c-.5522847 0-1 .4477153-1 1s.4477153 1 1 1h5.933c.0404663.2278771.0628693.4585946.067.69.0006956.8112551-.2288651 1.6060485-.662 2.292-.0257791.0320156-.0498139.0653974-.072.1-.7969955 1.2014069-2.1442773 1.922011-3.586 1.918h-14.48l1.7-3.57c.1536242-.3226108.123468-.7026731-.0791091-.9970209-.202577-.2943479-.5467987-.458263-.903-.43-.3562013.0282629-.6702667.2444101-.8238909.5670209l-4.3 9.022c-.005.011-.011.021-.015.032l-5.139 10.806c-.1654027.3472838-.5153406.5689111-.9.57h-2.74c-.5522847 0-1-.4477153-1-1v-19c0-.5522847-.4477153-1-1-1s-1 .4477153-1 1v4h-18c-1.65685425 0-3-1.3431458-3-3v-16c0-.5522847-.44771525-1-1-1s-1 .4477153-1 1v16c.00330612 2.7600532 2.23994685 4.9966939 5 5h18v2h-20c-1.65685425 0-3 1.3431458-3 3v20c0 1.6568542 1.34314575 3 3 3h54c1.6568542 0 3-1.3431458 3-3v-5.1c-.0025565-.9575743-.6834962-1.7789788-1.624-1.959-1.3890228-.2916018-2.3836365-1.5166987-2.3836365-2.936s.9946137-2.6443982 2.3836365-2.936c.9423494-.180378 1.6238378-1.0045425 1.624-1.964v-5.105c0-1.6568542-1.3431458-3-3-3h-19.7l.952-2zm-28.68-29c0-.55228475.4477153-1 1-1h2.74c.38602-.00363114.7382829.21946871.9.57l7.346 15.43h-11.986zm-22 33h20v2h-21v-1c0-.5522847.44771525-1 1-1zm51 11c.0076112 2.3734513 1.6761229 4.417378 4 4.9v5.1c0 .5522847-.4477153 1-1 1h-15c0-.5522847-.4477153-1-1-1s-1 .4477153-1 1h-37c-.55228475 0-1-.4477153-1-1v-17h21v5c0 1.6568542 1.3431458 3 3 3h2.737c1.1562482-.0031905 2.2087544-.6675632 2.709-1.71l3-6.29h23.533l-.015 2.107c-2.307013.496784-3.9567211 2.5331164-3.964 4.893zm4-10-.007 1h-15.993v-2h15c.5522847 0 1 .4477153 1 1zm-18-1v2h-4.607l.953-2z"/><path id="Shape" d="m12 25c.5522847 0 1-.4477153 1-1s-.4477153-1-1-1h-2c-.55228475 0-1 .4477153-1 1s.44771525 1 1 1z"/><path id="Shape" d="m18 25c.5522847 0 1-.4477153 1-1s-.4477153-1-1-1h-2c-.5522847 0-1 .4477153-1 1s.4477153 1 1 1z"/><path id="Shape" d="m30 25c.5522847 0 1-.4477153 1-1s-.4477153-1-1-1h-2c-.5522847 0-1 .4477153-1 1s.4477153 1 1 1z"/><path id="Shape" d="m36 25c.5522847 0 1-.4477153 1-1s-.4477153-1-1-1h-2c-.5522847 0-1 .4477153-1 1s.4477153 1 1 1z"/><path id="Shape" d="m48 25c.5522847 0 1-.4477153 1-1s-.4477153-1-1-1h-2c-.5522847 0-1 .4477153-1 1s.4477153 1 1 1z"/><path id="Shape" d="m45 51c-.5522847 0-1 .4477153-1 1v3c0 .5522847.4477153 1 1 1s1-.4477153 1-1v-3c0-.5522847-.4477153-1-1-1z"/><path id="Shape" d="m49 51c-.5522847 0-1 .4477153-1 1v3c0 .5522847.4477153 1 1 1s1-.4477153 1-1v-3c0-.5522847-.4477153-1-1-1z"/><path id="Shape" d="m53 51c-.5522847 0-1 .4477153-1 1v3c0 .5522847.4477153 1 1 1s1-.4477153 1-1v-3c0-.5522847-.4477153-1-1-1z"/><path id="Shape" d="m6 45h14c.5522847 0 1-.4477153 1-1s-.4477153-1-1-1h-14c-.55228475 0-1 .4477153-1 1s.44771525 1 1 1z"/><path id="Shape" d="m6 49h14c.5522847 0 1-.4477153 1-1s-.4477153-1-1-1h-14c-.55228475 0-1 .4477153-1 1s.44771525 1 1 1z"/><path id="Shape" d="m36 51h-30c-.55228475 0-1 .4477153-1 1s.44771525 1 1 1h30c.5522847 0 1-.4477153 1-1s-.4477153-1-1-1z"/></g></g></svg>