<svg height="512" viewBox="0 0 55 60" width="512" xmlns="http://www.w3.org/2000/svg"><g id="048---Wallet" fill="none"><g id="Icons_copy" transform="translate(1 1)"><path id="Shape" d="m51 36h-3v-17c0-1.6568542-1.3431458-3-3-3h-2v-10c-.0032948-1.10320187-.8967981-1.9967052-2-2h-7c-.0032948-1.10320187-.8967981-1.9967052-2-2h-7c-.0032948-1.10320187-.8967981-1.9967052-2-2h-16c-1.10320187.0032948-1.9967052.89679813-2 2v14c-2.76142375 0-5 2.2385763-5 5v32c0 2.7614237 2.23857625 5 5 5h40c1.6568542 0 3-1.3431458 3-3v-7h3c1.1032019-.0032948 1.9967052-.8967981 2-2v-8c-.0032948-1.1032019-.8967981-1.9967052-2-2z" fill="#e8edfc"/><path id="Shape" d="m48 29v26c0 1.6568542-1.3431458 3-3 3h-40c-2.76142375 0-5-2.2385763-5-5v-32c0 2.7614237 2.23857625 5 5 5h40c1.6568542 0 3 1.3431458 3 3z" fill="#e8edfc"/><path id="Shape" d="m45 26h-3c1.6568542 0 3 1.3431458 3 3v26c0 1.6568542-1.3431458 3-3 3h3c1.6568542 0 3-1.3431458 3-3v-26c0-1.6568542-1.3431458-3-3-3z" fill="#cad9fc"/><path id="Shape" d="m5 16v10c-2.76142375 0-5-2.2385763-5-5s2.23857625-5 5-5z" fill="#7facfa"/><path id="Shape" d="m48 19v10c0-1.6568542-1.3431458-3-3-3h-2v-10h2c1.6568542 0 3 1.3431458 3 3z" fill="#7facfa"/><path id="Shape" d="m53 38v8c-.0032948 1.1032019-.8967981 1.9967052-2 2h-11c-3.3137085 0-6-2.6862915-6-6 .0049563-3.3116533 2.6883467-5.9950437 6-6h11c1.1032019.0032948 1.9967052.8967981 2 2z" fill="#a4c2f7"/><path id="Shape" d="m50 38v8c-.0032948 1.1032019-.8967981 1.9967052-2 2h-8c-3.3137085 0-6-2.6862915-6-6 .0049563-3.3116533 2.6883467-5.9950437 6-6h8c1.1032019.0032948 1.9967052.8967981 2 2z" fill="#cad9fc"/><circle id="Oval" cx="40" cy="42" fill="#e8edfc" r="2"/><path id="Shape" d="m43 9.9v16.1c0-4.67-3.95-8.5-9-8.95v-13.05h3.1c-.0688868.32881533-.1024107.66405492-.1 1 0 2.76142375 2.2385763 5 5 5 .3359451.0024107.6711847-.03111324 1-.1z" fill="#e8edfc"/><path id="Shape" d="m43 6v3.9c-.3288153.06888676-.6640549.1024107-1 .1-2.7614237 0-5-2.23857625-5-5-.0024107-.33594508.0311132-.67118467.1-1h3.9c1.1032019.0032948 1.9967052.89679813 2 2z" fill="#cad9fc"/><path id="Shape" d="m25 26h-20c0-4.97 4.48-9 10-9 2.3958801-.0181238 4.7267436.7788129 6.61 2.26h.01c2.1004423 1.6096261 3.3462867 4.0939431 3.38 6.74z" fill="#e8edfc"/><g fill="#cad9fc"><path id="Shape" d="m34 26h-9v-8.95c5.05.45 9 4.28 9 8.95z"/><path id="Shape" d="m43 26h-9v-8.95c5.05.45 9 4.28 9 8.95z"/><path id="Shape" d="m11 1c0 2.76142375-2.23857625 5-5 5-.33594508.00241072-.67118467-.03111324-1-.1v-3.9c.0032948-1.10320187.89679813-1.9967052 2-2h3.9c.0688868.32881534.1024107.66405492.1 1z"/><path id="Shape" d="m25 2v3.9c-.3288153.06888676-.6640549.10241072-1 .1-2.7614237 0-5-2.23857625-5-5-.0024107-.33594508.0311132-.67118466.1-1h3.9c1.1032019.0032948 1.9967052.89679813 2 2z"/></g><path id="Shape" d="m34 7.9v18.1c0-4.67-3.95-8.5-9-8.95v-15.05h3.1c-.0688868.32881533-.1024107.66405492-.1 1 0 2.76142375 2.2385763 5 5 5 .3359451.00241072.6711847-.03111324 1-.1z" fill="#e8edfc"/><path id="Shape" d="m34 4v3.9c-.3288153.06888676-.6640549.10241072-1 .1-2.7614237 0-5-2.23857625-5-5-.0024107-.33594508.0311132-.67118467.1-1h3.9c1.1032019.0032948 1.9967052.89679813 2 2z" fill="#cad9fc"/></g><path id="Shape" d="m3 53v-32c-.00049586-2.0099102 1.20256458-3.824743 3.054-4.607 1.15215408-.4488535 1.92028957-1.5477688 1.946-2.784v-11.609c.0032948-1.10320187.89679813-1.9967052 2-2h-3c-1.10320187.0032948-1.9967052.89679813-2 2v14c-2.76142375 0-5 2.2385763-5 5v32c0 2.7614237 2.23857625 5 5 5h3c-2.76142375 0-5-2.2385763-5-5z" fill="#fff" transform="translate(1 1)"/><path id="Rectangle-path" d="m0 46h2v8h-2z" fill="#fff"/><g fill="#428dff"><path id="Shape" d="m1.037 51c-.55228475 0-1-.4477153-1-1s.44771525-1 1-1 1 .4477153 1 1-.44771525 1-1 1z"/><path id="Shape" d="m52 36h-2v-16c0-2.209139-1.790861-4-4-4h-1v-9c0-1.65685425-1.3431458-3-3-3h-6.184c-.4222546-1.19435087-1.5492146-1.99474861-2.816-2h-6.184c-.4222546-1.19435086-1.5492146-1.99474861-2.816-2h-16c-1.65685425 0-3 1.34314575-3 3v13.09c-2.88330337.4898665-4.99457036 2.9853841-5 5.91v24c0 .5522847.44771525 1 1 1s1-.4477153 1-1v-19.54c1.09668528.9908585 2.52198814 1.5396001 4 1.54h40c1.1045695 0 2 .8954305 2 2v6h-7c-3.8659932 0-7 3.1340068-7 7s3.1340068 7 7 7h7v6c0 1.1045695-.8954305 2-2 2h-40c-2.209139 0-4-1.790861-4-4 0-.5522847-.44771525-1-1-1s-1 .4477153-1 1c.00330738 3.3123376 2.68766243 5.9966926 6 6h40c2.209139 0 4-1.790861 4-4v-6h2c1.6568542 0 3-1.3431458 3-3v-8c0-1.6568542-1.3431458-3-3-3zm-47-10.142c-1.76420237-.4490235-2.99906467-2.0375517-2.99906467-3.858s1.2348623-3.4089765 2.99906467-3.858zm2-22.858c0-.55228475.44771525-1 1-1h3c0 2.209139-1.790861 4-4 4zm.078 23c.556-3.94 4.341-7 8.922-7s8.366 3.06 8.922 7zm17.922-4.731c-2.2088925-2.6989174-5.5123989-4.2640717-9-4.2640717s-6.79110753 1.5651543-9 4.2640717v-13.269c3.3123376-.00330738 5.9966926-2.68766243 6-6h6c.0033074 3.31233757 2.6876624 5.99669262 6 6zm0-15.269c-2.209139 0-4-1.790861-4-4h3c.5522847 0 1 .44771525 1 1zm2 20v-6.79c3.516866.5602957 6.2941034 3.2845722 6.922 6.79zm7-4.755c-1.735727-2.1920408-4.236402-3.646362-7-4.071v-13.174h1c.0033074 3.31233757 2.6876624 5.99669262 6 6zm0-13.245c-2.209139 0-4-1.790861-4-4h3c.5522847 0 1 .44771525 1 1zm2 18v-6.79c3.516866.5602957 6.2941034 3.2845722 6.922 6.79zm7-4.755c-1.735727-2.1920408-4.236402-3.646362-7-4.071v-11.174h1c.0033074 3.31233757 2.6876624 5.9966926 6 6zm0-11.245c-2.209139 0-4-1.790861-4-4h3c.5522847 0 1 .44771525 1 1zm2 16v-8h1c1.1045695 0 2 .8954305 2 2v6.556c-.9182497-.4916562-1.9665476-.6859408-3-.556zm8 21c0 .5522847-.4477153 1-1 1h-11c-2.7614237 0-5-2.2385763-5-5s2.2385763-5 5-5h11c.5522847 0 1 .4477153 1 1z"/><path id="Shape" d="m41 40c-1.6568542 0-3 1.3431458-3 3s1.3431458 3 3 3 3-1.3431458 3-3-1.3431458-3-3-3zm0 4c-.5522847 0-1-.4477153-1-1s.4477153-1 1-1 1 .4477153 1 1-.4477153 1-1 1z"/><path id="Shape" d="m7 32c.55228475 0 1-.4477153 1-1s-.44771525-1-1-1h-2c-.55228475 0-1 .4477153-1 1s.44771525 1 1 1z"/><path id="Shape" d="m33 32c.5522847 0 1-.4477153 1-1s-.4477153-1-1-1h-22c-.5522847 0-1 .4477153-1 1s.4477153 1 1 1z"/></g></g></svg>