<svg height="512" viewBox="0 0 60 60" width="512" xmlns="http://www.w3.org/2000/svg"><g id="017---Travel" fill="none"><g id="Layer_4" transform="translate(1 1)"><path id="Shape" d="m10.96 21.96-5.01.38c1.44967831-5.0462672 4.5213018-9.4744657 8.74-12.6l3.69 3.69-4.81 4.82c-.154.15.03-.092-2.61 3.71z" fill="#cad9fc"/><path id="Shape" d="m24.041 7.779-2.981-1.429c1.8251384-.64423301 3.7228198-1.06071529 5.65-1.24z" fill="#cad9fc"/><path id="Shape" d="m53 29c.0042673 8.9170504-4.9356276 17.1013542-12.8275595 21.2524043s-17.4346952 3.5844298-24.7799531-1.4713583c-7.34525788-5.0557881-11.28193915-13.767156-10.2224874-22.621046l2.41.654-.6.868c-.29859023.3981203-.25899874.9552148.09289322 1.3071068.35189195.3518919.90898648.3914834 1.30710678.0928932l.87-.6 1.61 5.918c.0944664.3432275.3642771.6103563.7084311.7013893.3441541.0910329.7107549-.0077572.9625689-.2593893.643-.649.91-.826.929-1.272l.648-8.472 3.562-2.478c.485-.485-1.674 1.694 4.96-4.94 5.339 5.339 2.81 2.571 11.389 12.58.2486052.2905519.6411395.4138914 1.0112494.3177479.37011-.0961435.6529874-.3949348.7287506-.7697479l.241-1.198c.09-.475.627.843-7.718-16.59 5.208-5.195 3.882-3.68 5.868-6.46 11.0053918 2.42176037 18.8457868 12.1713021 18.85 23.44z" fill="#a4c2f7"/><path id="Shape" d="m53 29c-.00085 6.6251319-2.7403011 12.9552227-7.5694453 17.4908307s-11.3183751 6.8732401-17.9305547 6.4591693c11.4527386-.7135689 20.7969916-9.4365974 22.2955259-20.8132751 1.4985344-11.3766778-5.268199-22.22184306-16.1455259-25.8767249l.5-.7c11.0053918 2.42176037 18.8457868 12.1713021 18.85 23.44z" fill="#7facfa"/><path id="Shape" d="m43.7 47.96c-10.2804916 7.9818357-25.0514711 6.3041223-33.28-3.78 1.65.15 4.23.15 4.94-1.18 1.06-2 2.12-5 7.43-3s6.36 5 10.6 6c3.7.87 9 1.75 10.31 1.96z" fill="#e8edfc"/><path id="Shape" d="m47.75 43.97c-.8971162-.0902521-1.7885005-.2304699-2.67-.42-9.84-2.15-5.79-9.26-2.69-10.24 3.36-1.07 0-6.41-1.13-8.55s0-4.28 3.37-6.42c1.5640158-.9468004 2.7056519-2.4570526 3.19-4.22 6.9357335 8.7505103 6.9066979 21.1321152-.07 29.85z" fill="#cad9fc"/><g fill="#e8edfc"><path id="Shape" d="m45.08 43.55c-9.84-2.15-5.79-9.26-2.69-10.24 3.36-1.07 0-6.41-1.13-8.55s0-4.28 3.37-6.42c.7313544-.4621707 1.3831098-1.0396328 1.93-1.71 5.0809309 8.4260074 4.494002 19.1017675-1.48 26.92z"/><path id="Shape" d="m24.041 7.779c-17.441-8.343-16.122-7.807-16.59-7.714l-1.194.235c-.37749622.07315993-.67960761.3562885-.77707693.7282502s.02696995.76686414.32007693 1.0157498c10.336 8.859 5.59 4.4 21.068 19.876l7.149 8.34c.2486052.2905519.6411395.4138914 1.0112494.3177479.37011-.0961435.6529874-.3949348.7287506-.7697479.258-1.291.341-1.446.16-1.824l-7.635-15.964z"/><path id="Shape" d="m10.974 21.949c-9.115.692-8.742.568-9.115.94l-.64.641c-.2510855.2521318-.34927881.6186944-.25785129.9625772.09142753.3438828.35870213.6132791.70185129.7074228l5.917 1.614 1.669 1.667 1.611 5.919c.0944664.3432275.3642771.6103563.7084311.7013893.3441541.0910329.7107549-.0077572.9625689-.2593893l.642-.639c.368-.368.242.027.935-9.105z"/><path id="Shape" d="m29.03 34.9c.08 1.03-1.12.87-1.77.64-.8-.29-1.6-.57-2.4-.86-1.648-.592-2.3-.421-2.82-2.22-.3787573-1.0945135-.5285223-2.2551923-.44-3.41.449-2.811 3.4-3.234 3.4-1.05s1.96 3.52 3.11 5.13c.4504356.5033825.7668336 1.1121047.92 1.77z"/><path id="Shape" d="m8.379 29.082c.272-.2 9.124-6.318 9.43-6.586 15.73-15.73 14.782-14.761 14.931-14.97l2.277-3.188c.6694373-.93911563.56244-2.22443761-.2530612-3.03993881-.8155012-.81550119-2.1008232-.92249845-3.0399388-.25306119-3.209 2.292-3.261 2.312-3.44 2.491-10.309 10.309-14.649 14.639-14.84 14.858l-6.465 9.288c-.29859023.3981203-.25899874.9552148.09289322 1.3071068.35189195.3518919.90898648.3914834 1.30710678.0928932z"/></g></g><path id="Shape" d="m6 44.389-1.715 1.03c-1.4178686-2.3706954-2.51160502-4.920729-3.252-7.582l1.931-.521c.69218467 2.4824605 1.71323383 4.861209 3.036 7.073z" fill="#fff"/><g fill="#428dff"><path id="Shape" d="m3.34 42.355c.55228475 0 1-.4477153 1-1s-.44771525-1-1-1h-.01c-.55228473.0027615-.99776137.4527153-.99499994 1.005.00276142.5522847.45271521.9977614 1.00499994.995z"/><path id="Shape" d="m41.586 4.5c.9955109.45334722 1.9638125.96420979 2.9 1.53.4692116.25077103 1.0526244.09025701 1.3275209-.36524004.2748964-.45549704.1450223-1.04648602-.2955209-1.34475996-1.0006773-.60598323-2.035759-1.15324099-3.1-1.639-.3266117-.15753402-.7129119-.12591367-1.009558.08263671-.2966461.20855039-.4571497.56134818-.4194606.92200272.0376892.36065455.2676646.67264648.6010186.81536057z"/><path id="Shape" d="m49.548 7.242c-.2675606-.25586363-.6545856-.34297324-1.0059683-.22641816-.3513826.11655507-.6096216.41770142-.6712232.78274949-.0616015.36504807.0835149.73426034.3771915.95966867 8.8864135 7.6314669 12.0832967 19.987956 8.0130021 30.9715953-4.0702947 10.9836393-14.5474362 18.2728362-26.2610021 18.2704047-2.4062677-.0310503-4.8008602-.3404414-7.136-.922-2.3222027-.630498-4.5577534-1.545072-6.656-2.723-2.0976672-1.1822583-4.0291894-2.6376253-5.744-4.328-.859966-.8404469-1.67096726-1.7295768-2.429-2.663-.7354698-.9516981-1.41495102-1.9453767-2.035-2.976-.29885993-.4541151-.89640358-.6025218-1.373-.341-.23531979.1291927-.40603157.3507474-.47096189.6112282-.06493033.2604807-.0181849.5362412.12896189.7607718.66459074 1.1034026 1.39282143 2.1672004 2.181 3.186.81048451 1.001037 1.67862315 1.9539861 2.6 2.854 1.8378073 1.811485 3.9070741 3.3720094 6.154 4.641 2.2491215 1.2624742 4.645608 2.2422291 7.135 2.917 2.5015244.6233779 5.0671443.9532673 7.645.983 12.5489861.0005443 23.7723624-7.8096033 28.1323744-19.5768183 4.3600121-11.7672149.9352865-25.0048066-8.5843744-33.1811817z"/><path id="Shape" d="m.737 26.713 6.239 1.7c-.38576558.7649967-.2284884 1.6920403.388 2.287.37014589.3797374.876726.595763 1.407.6.30499672-.009387.60358908-.0898563.872-.235l1.706 6.263c.0948151.3425829.3643618.6090839.708.7.0835006.0222619.1695835.0333585.256.033.2653977.000474.5200985-.1045721.708-.292l2.121-2.122c.1689408-.1689372.271815-.3927772.29-.631l.635-8.369 3.173-2.209c.0285895-.0193124.0559737-.0403515.082-.063l.106-.092.089-.081 4.111-4.111 3.483 3.479 8.486 9.9c.249128.2899894.6417922.412561 1.0116489.31579s.6521728-.3959476.7273511-.77079l.707-3.536c.042445-.2119373.0150784-.4319221-.078-.627l-7.473-15.624 3.747-3.747c.1150019-.11588758.2203518-.24096963.315-.374l2.277-3.187c.9539283-1.3367001.8022518-3.16701582-.3586952-4.32845821s-2.9911979-1.31389975-4.3283048-.36054179l-3.188 2.277c-.1352805.09596492-.2620787.20335868-.379.321l-3.741 3.742-15.626-7.471c-.19514561-.09397338-.4155269-.12204743-.628-.08l-3.536.707c-.37467816.0754676-.67357007.35790092-.77011571.72770901-.09654565.36980809.02614297.76230326.31611571 1.01129099l9.844 8.434 3.536 3.537-4.163 4.163-.114.129c-.026.03-.05.061-.073.092l-2.207 3.179-8.37.635c-.23822276.018185-.46206283.1210592-.631.29l-2.121 2.117c-.25160731.2520959-.35013707.6189912-.25867256.9632191.0914645.3442279.35911621.6138254.70267256.7077809zm12.729 7.787-.641.64-1.425-5.24 2.552-1.776zm22.551-5.081-.24 1.2-7.2-8.4-3.535-3.535 3.95-3.95zm-20.224-19.986-8.34-7.148 1.194-.239 14.689 7.025-3.951 3.951zm-.554 10.567 14.752-14.757c.0387225-.03935553.0808909-.07516515.126-.107l3.189-2.278c.5415221-.39059752 1.2864231-.33068218 1.7585526.14144737.4721296.47212955.5320449 1.21703051.1414474 1.75855263l-2.278 3.185c-.0323907.04558578-.0685151.08839988-.108.128l-14.713 14.71-9.3 6.483s0-.01-.005-.01zm-11.673 4.6 6.376-.485-1.776 2.549-5.24-1.427z"/><path id="Shape" d="m15.693 43.113-.214.416c-.243.454-1.447.821-3.574.681-2.37455439-3.0195045-3.95189636-6.5875228-4.587-10.376-.09914132-.5370706-.61084083-.895264-1.14940609-.8045928s-.90477256.5966664-.82259391 1.1365928c1.46058998 8.680187 7.3819578 15.9509186 15.5866933 19.1385955 8.2047355 3.187677 17.4816035 1.8217141 24.4193067-3.5955955.0250316-.0173012.0490696-.0359974.072-.056 6.7004166-5.249418 10.2673966-13.548879 9.4650824-22.0228546-.8023142-8.4739757-5.8635311-15.9565208-13.4300824-19.8551454-.490705-.2534987-1.0940013-.061205-1.3475.4295s-.061205 1.0940013.4295 1.3475c2.7540077 1.4211387 5.1932621 3.3828815 7.172 5.768-.4827468 1.328831-1.4073475 2.4514847-2.619 3.18-4.818 3.059-4.682 5.891-3.719 7.731.112.212.247.456.394.724.813 1.481 2.505 4.561 1.983 5.869-.119083.2774735-.3676509.4781247-.664.536-2.6294659 1.0493087-4.3089176 3.6454812-4.188 6.474.179 1.768 1.493 4.734 7.891 5.865-.7371281.7875929-1.5283885 1.5227165-2.368 2.2-1.481-.243-6.347-1.062-9.8-1.874-1.7112408-.468884-3.289879-1.3295859-4.611-2.514-1.7545707-1.4607635-3.7355536-2.6257098-5.865-3.449-5.78-2.172-7.454 1.097-8.454 3.051zm25.193-3.48c-.0272671-1.8883193 1.0783489-3.6095668 2.807-4.37.8678772-.2386227 1.5757584-.866701 1.916-1.7.873-2.185-.908-5.428-2.088-7.574-.14-.257-.269-.491-.375-.692-.311-.593-1.255-2.4 3.02-5.112 1.2097383-.7524802 2.2077995-1.8007886 2.9-3.046 5.5098551 8.1648595 5.2017182 18.9335611-.766 26.77-4.561-.57-7.192-2.078-7.414-4.276zm-17.449 2.3c1.9435915.7535538 3.7502846 1.8210838 5.348 3.16 1.542814 1.3657751 3.3839368 2.351406 5.376 2.878 2.52.592 5.764 1.186 7.953 1.566-9.1069474 5.650241-20.9079891 4.2705646-28.466-3.328 1.834-.132 3.045-.71 3.6-1.744l.23-.444c.995-1.947 1.859-3.631 5.959-2.085z"/><path id="Shape" d="m22.077 33.724c.1252481.5090162.3410155.9913595.637 1.424.5868285.6850707 1.3915656 1.1472913 2.279 1.309.185.053.365.1.532.164l2.393.86c.40264.1444865.8262803.2218498 1.254.229.4418961.0156788.8764282-.1162642 1.235-.375.4605687-.3609173.6947489-.9393235.615-1.519-.1349959-.7866394-.4805679-1.5220167-1-2.128l-.1-.139c-.3603592-.4807126-.745898-.942024-1.155-1.382-.947-1.058-1.767-1.967-1.767-3.167.035121-.8279631-.3649581-1.6140899-1.055-2.073-.6931714-.4121568-1.5512936-.4322542-2.263-.053-1.1402666.6037197-1.9143711 1.725686-2.074 3.006-.1143444 1.1417704.0033469 2.294873.346 3.39zm1.5-3.512c.0708383-.6338652.4283087-1.2002899.97-1.537.162-.079.283-.084.33-.054.0939763.1025448.1388495.2408125.123.379 0 1.962 1.213 3.312 2.283 4.5.3610807.3861272.7015532.7910224 1.02 1.213l.106.148c.2000287.2579482.3764085.5333951.527.823-.1141433-.0185969-.2265339-.0466945-.336-.084l-2.393-.86c-.207-.074-.43-.139-.656-.2-.4491734-.0726455-.8695976-.2678053-1.215-.564-.1556182-.2422095-.2692155-.5089602-.336-.789l-.115-.426c-.2524009-.8247665-.3553531-1.6880071-.304-2.549z"/><path id="Shape" d="m2.966 37.315c-.47569352-1.760501-.77714354-3.5635071-.9-5.383-.03755537-.5522847-.51571525-.9695553-1.068-.932-.55228474.0375554-.96955535.5157153-.932 1.068.13270949 1.949803.4555761 3.8819789.964 5.769.11750042.4363827.51307507.7397249.965.74.08847713-.000321.17654111-.0120853.262-.035.25703192-.068207.47631086-.2359827.60935796-.4662349s.16890353-.5040153.09964204-.7607651z"/></g></g></svg>