<?xml version="1.0" encoding="iso-8859-1"?>
<!-- Generator: Adobe Illustrator 19.0.0, SVG Export Plug-In . SVG Version: 6.00 Build 0)  -->
<svg version="1.1" id="Layer_1" xmlns="http://www.w3.org/2000/svg" xmlns:xlink="http://www.w3.org/1999/xlink" x="0px" y="0px"
	 viewBox="0 0 512 512" style="enable-background:new 0 0 512 512;" xml:space="preserve">
<g>
	<g>
		<path d="M444.566,82.717c-15.828-17.24-34.291-32.574-55.249-45.353C335.64,4.633,274.565-5.918,216.831,3.069
			c-49.543,7.712-96.626,29.809-134.458,64.678c-17.097,15.756-32.306,34.114-44.998,54.929
			c-5.175,8.485-9.776,17.161-13.852,25.975c-53.844,116.391-12.903,257.631,99.163,325.968c2.734,1.668,5.489,3.274,8.26,4.827
			c36.27,20.322,75.583,30.847,114.763,32.357c3.292,0.126,6.582,0.197,9.87,0.197c41.373,0,82.283-10.036,118.99-29.142
			c39.963-20.802,74.941-52.36,100.057-93.549c15.424-25.294,25.908-52.235,31.763-79.692
			C523.586,228.963,500.684,143.837,444.566,82.717z M146.742,366.51l14.737,86.124c-6.477-3.126-12.836-6.589-19.057-10.382
			c-49.752-30.339-84.713-78.235-98.44-134.868c-11.733-48.405-6.74-98.233,13.896-142.757l67.258,38.492
			c18.472,10.572,27.747,32.371,22.552,53.011c-1.879,7.467,0.158,15.265,5.449,20.859l1.921,2.031
			c16.979,17.954,17.303,46.382,0.735,64.718l-3.593,3.975C147.566,352.843,145.576,359.693,146.742,366.51z M213.342,82.814
			l-80.454,45.28c-1.907,1.073-4.044,1.624-6.198,1.624c-1.032,0-2.067-0.126-3.083-0.382l-38.039-9.572
			c30.016-37.712,71.441-64.255,119.041-75.792c7.861-1.906,15.759-3.349,23.665-4.377c-0.009,0.035-0.011,0.071-0.02,0.105
			l-8.854,35.186C218.553,78.248,216.363,81.115,213.342,82.814z M307.393,468.01c-24.655,5.977-49.68,7.613-74.186,5.057
			l-5.295-32.311c-0.93-5.676,2.09-11.264,7.348-13.596l16.549-7.337c25.441-11.277,55.156-2.694,70.665,20.409l9.758,14.537
			l8.26,2.39C329.859,461.599,318.808,465.244,307.393,468.01z M464.308,321.084c-1.044-0.543-2.022-1.237-2.898-2.076
			l-12.154-11.632c-8.198-7.847-18.976-11.977-30.306-11.608c-11.344,0.363-21.822,5.163-29.503,13.518
			c-9.99,10.869-23.506,18.232-38.056,20.735l-43.211,7.435c-2.588,0.446-5.186,0.665-7.766,0.665
			c-10.697,0-21.105-3.766-29.412-10.802c-10.311-8.734-16.185-21.493-16.115-35.005l0.201-38.902
			c0.048-9.102-2.939-18.121-8.409-25.395l-22.437-29.838c-3.131-4.164-3.385-9.822-0.641-14.25l35.448-57.201
			c2.211-3.57,6.054-5.808,10.251-5.971l84.007-3.26l32.661-35.694c0.193-0.211,0.406-0.397,0.61-0.593
			c40.713,30.305,69.338,73.444,81.443,123.385C477.492,243.678,476.067,283.688,464.308,321.084z"/>
	</g>
</g>
<g>
</g>
<g>
</g>
<g>
</g>
<g>
</g>
<g>
</g>
<g>
</g>
<g>
</g>
<g>
</g>
<g>
</g>
<g>
</g>
<g>
</g>
<g>
</g>
<g>
</g>
<g>
</g>
<g>
</g>
</svg>
